<?xml version="1.0" encoding="utf-8"?>
<!-- Generator: Adobe Illustrator 25.0.0, SVG Export Plug-In . SVG Version: 6.00 Build 0)  -->
<svg version="1.1" id="レイヤー_1" xmlns="http://www.w3.org/2000/svg" xmlns:xlink="http://www.w3.org/1999/xlink" x="0px"
	 y="0px" viewBox="0 0 168.01 34.23" style="enable-background:new 0 0 168.01 34.23;" xml:space="preserve">
<style type="text/css">
	.st0{fill:#305FAC;}
	.st1{fill:#ED724F;}
</style>
<g>
	<path class="st0" d="M13.79,1.87C9.07,2.16,5.65,5.65,5.65,8.06c0,1.15,0.54,1.69,1.48,1.69c0.47,0,1.04-0.25,1.22-0.25
		c0.25,0,0.36,0.14,0.36,0.4c0,1.01-2.02,3.67-4.86,3.67C1.62,13.57,0,12.13,0,9.61C0,3.96,7.49,0,16.09,0
		c5.47,0,8.35,2.02,8.35,5.15c0,3.38-2.81,5.51-5.76,5.87c2.02,0.18,5.15,2.52,5.15,5.54c0,5.8-4.46,7.49-8.06,7.49
		c-2.59,0-4.36-1.3-4.86-1.3c-0.83,0-2.66,1.3-3.67,1.3c-0.36,0-0.58-0.18-0.58-0.47c0-0.47,0.54-0.68,1.19-2.45
		c0.58-1.58,2.3-11.48,3.31-15.37C11.81,3.31,12.81,2.56,13.79,1.87z M14.83,11.66c0,0-1.48,7.85-1.48,8.82
		c0,0.9,0.65,1.66,1.58,1.66c1.48,0,3.53-1.87,3.53-6.91C18.47,12.96,16.81,11.66,14.83,11.66z M19.69,4.39
		c0-1.44-0.65-2.59-1.84-2.59c-1.01,0.97-2.59,8.06-2.56,8.06C17.85,9.86,19.69,7.06,19.69,4.39z"/>
	<path class="st0" d="M37.01,16.7c0,4.03-2.56,7.49-6.98,7.49c-3.17,0-5.22-1.84-5.22-4.72c0-3.49,2.77-6.98,7.7-6.98
		C35.17,12.49,37.01,14.22,37.01,16.7z M33.62,17.46c-1.12-0.43-1.44-0.83-1.44-1.48c0-0.9,0.54-1.19,0.54-1.4
		c0-0.18-0.11-0.29-0.32-0.29c-0.14,0-0.5,0.11-1.01,0.5c-0.9,0.72-1.76,2.05-1.76,4.1c0,1.62,0.94,2.66,2.34,2.66
		c1.44,0,2.38-1.48,2.38-2.74C34.34,18.21,34.13,17.67,33.62,17.46z"/>
	<path class="st0" d="M49.75,16.7c0,4.03-2.56,7.49-6.98,7.49c-3.17,0-5.22-1.84-5.22-4.72c0-3.49,2.77-6.98,7.7-6.98
		C47.91,12.49,49.75,14.22,49.75,16.7z M46.37,17.46c-1.12-0.43-1.44-0.83-1.44-1.48c0-0.9,0.54-1.19,0.54-1.4
		c0-0.18-0.11-0.29-0.32-0.29c-0.14,0-0.5,0.11-1.01,0.5c-0.9,0.72-1.76,2.05-1.76,4.1c0,1.62,0.94,2.66,2.34,2.66
		c1.44,0,2.38-1.48,2.38-2.74C47.09,18.21,46.87,17.67,46.37,17.46z"/>
	<path class="st0" d="M62.89,20.37c0.25-0.25,0.4-0.36,0.61-0.36c0.32,0,0.5,0.29,0.5,0.5c0,0.4-0.22,0.68-0.58,1.15
		c-0.79,1.01-2.34,2.38-4.39,2.38c-3.13,0-3.35-4.79-3.71-4.79c0,0-0.86,3.17-0.86,3.85c0,0.61-0.22,0.76-0.76,0.76
		c-1.08,0-2.52,0.18-3.1,0.18c-0.43,0-0.68-0.18-0.68-0.79c0-3.13,3.17-10.69,3.17-16.05c0-1.19-0.61-1.76-1.37-1.76
		c-0.32,0-0.54-0.14-0.54-0.43c0-0.76,1.91-1.94,3.96-1.94c1.91,0,3.06,1.01,3.06,2.81c0,2.27-2.56,10.15-2.56,11.59
		c1.08,0,2.16-1.22,2.16-2.09c0-0.4-0.25-0.47-0.25-0.83c0-0.76,2.23-1.91,3.89-1.91c0.72,0,1.04,0.29,1.04,0.83
		c0,1.51-1.55,3.46-4.21,4.93c0.4,1.26,1.62,2.74,3.13,2.74C62.06,21.13,62.42,20.84,62.89,20.37z"/>
	<path class="st0" d="M65.77,20.48c0,0.9,0.32,1.51,0.97,1.51c0.5,0,0.79-0.32,0.79-0.97c0-2.12-3.56-2.45-3.56-5.15
		c0-2.27,2.27-3.42,4.97-3.42c2.63,0,3.82,1.01,3.82,2.48c0,0.97-0.5,1.84-1.69,1.84c-0.68,0-1.3-0.54-1.3-1.22
		c0-0.54,0.29-0.76,0.29-1.08c0-0.36-0.29-0.5-0.68-0.5c-0.47,0-1.04,0.5-1.04,1.19c0,2.12,3.96,2.41,3.96,5.04
		c0,2.34-1.87,3.92-5.04,3.92c-2.7,0-4.68-1.19-4.68-3.13c0-1.15,0.83-1.84,1.66-1.84C65.19,19.15,65.77,19.62,65.77,20.48z"/>
	<path class="st1" d="M97.63,4.54c0,2.02-1.01,3.49-2.41,3.49c-0.97,0-1.76-0.61-1.76-1.62c0-1.66,1.62-1.58,1.62-3.1
		c0-0.86-0.76-1.3-1.62-1.3c-3.67,0-7.02,6.08-7.02,13.03c0,3.42,2.05,5.04,4.64,5.04c1.91,0,3.31-1.51,4.07-2.3
		c0.32-0.36,0.58-0.61,0.83-0.61s0.47,0.14,0.47,0.4c0,0.32-0.14,0.65-0.36,1.12c-0.79,1.73-3.82,5.65-8.17,5.65
		c-4.39,0-7.45-2.34-7.45-8.31C80.46,7.06,86.83,0,92.73,0C95.5,0,97.63,1.58,97.63,4.54z"/>
	<path class="st1" d="M104.79,21.27c0-1.94,1.15-3.82,1.15-5.18c0-0.54-0.36-0.86-0.86-0.86c-0.76,0-1.55,0.79-2.27,2.23
		c-0.65,1.22-1.48,4.9-1.51,5.65c0,0.61-0.25,0.76-0.76,0.76c-1.12,0-2.56,0.18-3.13,0.18c-0.43,0-0.68-0.18-0.68-0.79
		c0-3.06,3.17-11.01,3.17-16.05c0-1.19-0.61-1.76-1.37-1.76c-0.32,0-0.54-0.14-0.54-0.43c0-0.76,1.91-1.94,3.96-1.94
		c1.91,0,3.06,1.01,3.06,2.81c0,2.02-1.58,7.42-2.09,9c0.9-1.01,2.59-2.23,4.64-2.23c1.98,0,3.06,0.9,3.06,2.45
		c0,1.8-1.08,3.2-1.08,4.82c0,0.79,0.47,1.22,1.12,1.22c0.61,0,0.9-0.29,1.37-0.76c0.25-0.25,0.4-0.36,0.61-0.36
		c0.32,0,0.5,0.29,0.5,0.5c0,0.4-0.22,0.68-0.58,1.15c-0.76,0.97-2.3,2.38-4.57,2.38C105.8,24.05,104.79,22.93,104.79,21.27z"/>
	<path class="st1" d="M123.22,24.05c-2.16,0-2.77-1.91-2.77-1.91s-1.91,1.91-4.54,1.91c-2.12,0-3.85-1.44-3.85-4.21
		c0-3.56,2.16-7.2,7.31-7.2c1.91,0,2.45,0.68,3.02,0.68c0.61,0,2.16-0.68,2.99-0.68c0.32,0,0.54,0.14,0.54,0.54
		c0,0.86-1.26,3.67-1.26,6.48c0,0.94,0.58,1.48,1.22,1.48c0.61,0,0.9-0.29,1.37-0.76c0.25-0.25,0.4-0.36,0.61-0.36
		c0.32,0,0.5,0.29,0.5,0.5c0,0.4-0.22,0.68-0.58,1.15C127.04,22.64,125.49,24.05,123.22,24.05z M119.7,14.22
		c-2.05,0-2.95,3.78-2.95,5.76c0,0.94,0.43,1.69,1.22,1.69c0.68,0,1.4-0.61,1.87-1.69c0.43-0.94,0.94-3.31,0.94-4.72
		C120.78,14.61,120.45,14.22,119.7,14.22z"/>
	<path class="st1" d="M135.18,21.27c0-2.2,1.15-3.64,1.15-5.04c0-0.58-0.32-1.01-0.83-1.01c-0.61,0-1.48,0.61-2.27,2.2
		c-0.61,1.22-1.55,4.28-1.55,5.69c0,0.61-0.25,0.76-0.79,0.76c-1.08,0-2.48,0.18-3.02,0.18c-0.47,0-0.76-0.18-0.76-0.79
		c0-1.33,1.51-6.19,1.51-8.14c0-0.61-0.25-0.68-0.25-1.15c0-0.79,1.94-1.33,4.03-1.33c0.79,0,1.22,0.32,1.22,0.94
		c0,0.58-0.29,1.62-0.29,1.62c0.65-0.79,2.77-2.56,4.9-2.56c1.98,0,2.77,0.9,2.77,2.27c0,1.66-1.01,3.46-1.01,4.93
		c0,0.94,0.5,1.3,1.15,1.3c0.61,0,0.9-0.29,1.37-0.76c0.25-0.25,0.4-0.36,0.61-0.36c0.32,0,0.5,0.29,0.5,0.5
		c0,0.4-0.22,0.68-0.58,1.15c-0.76,0.97-2.3,2.38-4.57,2.38C136.44,24.05,135.18,22.82,135.18,21.27z"/>
	<path class="st1" d="M146.59,24.05c-2.45,0-4.07-1.69-4.07-4.21c0-3.53,2.16-7.2,7.31-7.2c1.91,0,2.59,0.68,3.17,0.68
		c0.76,0,1.91-0.68,2.92-0.68c0.36,0,0.54,0.14,0.54,0.54c0,0.65-0.65,1.4-1.62,7.59c-0.86,5.51-1.98,13.46-8.46,13.46
		c-2.63,0-4.9-1.51-4.9-4.03c0-2.88,2.3-4.07,3.13-4.07c0.25,0,0.4,0.11,0.4,0.32c0,0.36-0.32,0.54-0.32,1.33
		c0,1.04,0.83,1.69,2.05,1.69c3.1,0,3.78-6.26,3.82-7.06C150.37,22.68,148.89,24.05,146.59,24.05z M150.01,14.11
		c-1.84,0-2.81,3.92-2.81,5.76c0,0.94,0.47,1.69,1.26,1.69s1.44-0.58,1.87-1.69c0.43-1.15,0.9-3.67,0.9-4.72
		C151.23,14.51,150.8,14.11,150.01,14.11z"/>
	<path class="st1" d="M166.71,20.81c0.36-0.25,0.61-0.43,0.83-0.43c0.29,0,0.47,0.22,0.47,0.43c0,0.36-0.22,0.65-0.79,1.22
		c-0.79,0.79-2.38,2.12-5,2.12c-3.38,0-5.87-1.51-5.87-4.97c0-3.49,2.81-6.62,7.59-6.62c2.45,0,3.56,1.08,3.56,2.63
		c0,2.05-2.41,4.03-6.01,4.32c0,1.26,1.15,2.23,2.52,2.23C165.24,21.74,166.14,21.2,166.71,20.81z M164.88,14.94
		c0-0.54-0.29-0.83-0.86-0.83c-1.08,0-2.52,1.76-2.52,3.89C163.54,17.6,164.88,15.8,164.88,14.94z"/>
</g>
</svg>
