<?xml version="1.0" encoding="utf-8"?>
<!-- Generator: Adobe Illustrator 25.0.0, SVG Export Plug-In . SVG Version: 6.00 Build 0)  -->
<svg version="1.1" id="レイヤー_1" xmlns="http://www.w3.org/2000/svg" xmlns:xlink="http://www.w3.org/1999/xlink" x="0px"
	 y="0px" viewBox="0 0 745 153" style="enable-background:new 0 0 745 153;" xml:space="preserve">
<style type="text/css">
	.st0{fill:#1B1464;}
</style>
<g>
	<g>
		<path class="st0" d="M63.3,9.4c-20.8,1.3-35.9,16.7-35.9,27.3c0,5.1,2.4,7.5,6.5,7.5c2.1,0,4.6-1.1,5.4-1.1c1.1,0,1.6,0.6,1.6,1.8
			c0,4.5-8.9,16.2-21.5,16.2c-9.8,0-17-6.4-17-17.5c0-24.9,33.1-42.4,71-42.4c24.1,0,36.9,8.9,36.9,22.7c0,14.9-12.4,24.3-25.4,25.9
			c8.9,0.8,22.7,11.1,22.7,24.5c0,25.6-19.7,33.1-35.6,33.1c-11.4,0-19.2-5.7-21.5-5.7c-3.7,0-11.7,5.7-16.2,5.7
			c-1.6,0-2.6-0.8-2.6-2.1c0-2.1,2.4-3,5.3-10.8c2.6-7,10.2-50.7,14.6-67.8C54.5,15.8,58.9,12.5,63.3,9.4z M67.9,52.6
			c0,0-6.5,34.6-6.5,38.9c0,4,2.9,7.3,7,7.3c6.5,0,15.6-8.3,15.6-30.5C83.9,58.4,76.6,52.6,67.9,52.6z M89.3,20.5
			c0-6.4-2.9-11.4-8.1-11.4c-4.5,4.3-11.4,35.6-11.3,35.6C81.2,44.7,89.3,32.3,89.3,20.5z"/>
		<path class="st0" d="M165.8,74.9c0,17.8-11.3,33.1-30.8,33.1c-14,0-23-8.1-23-20.8c0-15.4,12.2-30.8,34-30.8
			C157.6,56.3,165.8,63.9,165.8,74.9z M150.8,78.2c-4.9-1.9-6.4-3.7-6.4-6.5c0-4,2.4-5.3,2.4-6.2c0-0.8-0.5-1.3-1.4-1.3
			c-0.6,0-2.2,0.5-4.5,2.2c-4,3.2-7.8,9-7.8,18.1c0,7.2,4.1,11.7,10.3,11.7c6.4,0,10.5-6.5,10.5-12.1
			C154,81.5,153.1,79.2,150.8,78.2z"/>
		<path class="st0" d="M222,74.9c0,17.8-11.3,33.1-30.8,33.1c-14,0-23-8.1-23-20.8c0-15.4,12.2-30.8,34-30.8
			C213.9,56.3,222,63.9,222,74.9z M207.1,78.2c-4.9-1.9-6.4-3.7-6.4-6.5c0-4,2.4-5.3,2.4-6.2c0-0.8-0.5-1.3-1.4-1.3
			c-0.6,0-2.2,0.5-4.5,2.2c-4,3.2-7.8,9-7.8,18.1c0,7.2,4.1,11.7,10.3,11.7c6.4,0,10.5-6.5,10.5-12.1
			C210.3,81.5,209.3,79.2,207.1,78.2z"/>
		<path class="st0" d="M280,91.1c1.1-1.1,1.8-1.6,2.7-1.6c1.4,0,2.2,1.3,2.2,2.2c0,1.8-1,3-2.6,5.1c-3.5,4.5-10.3,10.5-19.4,10.5
			c-13.8,0-14.8-21.1-16.4-21.1c0,0-3.8,14-3.8,17c0,2.7-1,3.4-3.4,3.4c-4.8,0-11.1,0.8-13.7,0.8c-1.9,0-3-0.8-3-3.5
			c0-13.8,14-47.2,14-70.8c0-5.3-2.7-7.8-6-7.8c-1.4,0-2.4-0.6-2.4-1.9c0-3.4,8.4-8.6,17.5-8.6c8.4,0,13.5,4.5,13.5,12.4
			c0,10-11.3,44.8-11.3,51.2c4.8,0,9.5-5.4,9.5-9.2c0-1.8-1.1-2.1-1.1-3.7c0-3.4,9.8-8.4,17.2-8.4c3.2,0,4.6,1.3,4.6,3.7
			c0,6.7-6.8,15.3-18.6,21.8c1.8,5.6,7.2,12.1,13.8,12.1C276.3,94.4,277.9,93.1,280,91.1z"/>
		<path class="st0" d="M292.7,91.6c0,4,1.4,6.7,4.3,6.7c2.2,0,3.5-1.4,3.5-4.3c0-9.4-15.7-10.8-15.7-22.7c0-10,10-15.1,21.9-15.1
			c11.6,0,16.9,4.5,16.9,10.9c0,4.3-2.2,8.1-7.5,8.1c-3,0-5.7-2.4-5.7-5.4c0-2.4,1.3-3.4,1.3-4.8c0-1.6-1.3-2.2-3-2.2
			c-2.1,0-4.6,2.2-4.6,5.3c0,9.4,17.5,10.6,17.5,22.2c0,10.3-8.3,17.3-22.2,17.3c-11.9,0-20.7-5.3-20.7-13.8c0-5.1,3.7-8.1,7.3-8.1
			C290.1,85.7,292.7,87.8,292.7,91.6z"/>
	</g>
	<g>
		<path class="st0" d="M433.3,21.2c0,8.9-4.5,15.4-10.6,15.4c-4.3,0-7.8-2.7-7.8-7.2c0-7.3,7.2-7,7.2-13.7c0-3.8-3.4-5.7-7.2-5.7
			c-16.2,0-31,26.8-31,57.5c0,15.1,9,22.2,20.5,22.2c8.4,0,14.6-6.7,18-10.2c1.4-1.6,2.6-2.7,3.7-2.7s2.1,0.6,2.1,1.8
			c0,1.4-0.6,2.9-1.6,4.9c-3.5,7.6-16.9,24.9-36.1,24.9c-19.4,0-32.9-10.3-32.9-36.7c0-39.6,28.1-70.8,54.1-70.8
			C423.9,1.2,433.3,8.1,433.3,21.2z"/>
		<path class="st0" d="M464.9,95c0-8.6,5.1-16.9,5.1-22.9c0-2.4-1.6-3.8-3.8-3.8c-3.4,0-6.8,3.5-10,9.8c-2.9,5.4-6.5,21.6-6.7,24.9
			c0,2.7-1.1,3.4-3.4,3.4c-4.9,0-11.3,0.8-13.8,0.8c-1.9,0-3-0.8-3-3.5c0-13.5,14-48.6,14-70.8c0-5.3-2.7-7.8-6-7.8
			c-1.4,0-2.4-0.6-2.4-1.9c0-3.4,8.4-8.6,17.5-8.6c8.4,0,13.5,4.5,13.5,12.4c0,8.9-7,32.8-9.2,39.7c4-4.5,11.4-9.8,20.5-9.8
			c8.7,0,13.5,4,13.5,10.8c0,7.9-4.8,14.1-4.8,21.3c0,3.5,2.1,5.4,4.9,5.4c2.7,0,4-1.3,6-3.4c1.1-1.1,1.8-1.6,2.7-1.6
			c1.4,0,2.2,1.3,2.2,2.2c0,1.8-1,3-2.6,5.1c-3.4,4.3-10.2,10.5-20.2,10.5C469.4,107.3,464.9,102.4,464.9,95z"/>
		<path class="st0" d="M546.3,107.3c-9.5,0-12.2-8.4-12.2-8.4s-8.4,8.4-20,8.4c-9.4,0-17-6.4-17-18.6C497,73,506.6,57,529.3,57
			c8.4,0,10.8,3,13.3,3c2.7,0,9.5-3,13.2-3c1.4,0,2.4,0.6,2.4,2.4c0,3.8-5.6,16.2-5.6,28.6c0,4.1,2.6,6.5,5.4,6.5c2.7,0,4-1.3,6-3.4
			c1.1-1.1,1.8-1.6,2.7-1.6c1.4,0,2.2,1.3,2.2,2.2c0,1.8-1,3-2.6,5.1C563.1,101.1,556.3,107.3,546.3,107.3z M530.7,63.9
			c-9,0-13,16.7-13,25.4c0,4.1,1.9,7.5,5.4,7.5c3,0,6.2-2.7,8.3-7.5c1.9-4.1,4.1-14.6,4.1-20.8C535.5,65.6,534.1,63.9,530.7,63.9z"
			/>
		<path class="st0" d="M599.1,95c0-9.7,5.1-16.1,5.1-22.2c0-2.6-1.4-4.5-3.7-4.5c-2.7,0-6.5,2.7-10,9.7c-2.7,5.4-6.8,18.9-6.8,25.1
			c0,2.7-1.1,3.4-3.5,3.4c-4.8,0-10.9,0.8-13.3,0.8c-2.1,0-3.4-0.8-3.4-3.5c0-5.9,6.7-27.3,6.7-35.9c0-2.7-1.1-3-1.1-5.1
			c0-3.5,8.6-5.9,17.8-5.9c3.5,0,5.4,1.4,5.4,4.1c0,2.6-1.3,7.2-1.3,7.2c2.9-3.5,12.2-11.3,21.6-11.3c8.7,0,12.2,4,12.2,10
			c0,7.3-4.5,15.3-4.5,21.8c0,4.1,2.2,5.7,5.1,5.7c2.7,0,4-1.3,6-3.4c1.1-1.1,1.8-1.6,2.7-1.6c1.4,0,2.2,1.3,2.2,2.2
			c0,1.8-1,3-2.6,5.1c-3.4,4.3-10.2,10.5-20.2,10.5C604.6,107.3,599.1,101.9,599.1,95z"/>
		<path class="st0" d="M649.4,107.3c-10.8,0-18-7.5-18-18.6c0-15.6,9.5-31.8,32.3-31.8c8.4,0,11.4,3,14,3c3.4,0,8.4-3,12.9-3
			c1.6,0,2.4,0.6,2.4,2.4c0,2.9-2.9,6.2-7.2,33.5c-3.8,24.3-8.7,59.4-37.3,59.4c-11.6,0-21.6-6.7-21.6-17.8c0-12.7,10.2-18,13.8-18
			c1.1,0,1.8,0.5,1.8,1.4c0,1.6-1.4,2.4-1.4,5.9c0,4.6,3.7,7.5,9,7.5c13.7,0,16.7-27.6,16.9-31.2
			C666.1,101.3,659.6,107.3,649.4,107.3z M664.5,63.4c-8.1,0-12.4,17.3-12.4,25.4c0,4.1,2.1,7.5,5.6,7.5s6.4-2.6,8.3-7.5
			c1.9-5.1,4-16.2,4-20.8C669.9,65.2,668,63.4,664.5,63.4z"/>
		<path class="st0" d="M738.2,93c1.6-1.1,2.7-1.9,3.7-1.9c1.3,0,2.1,1,2.1,1.9c0,1.6-1,2.9-3.5,5.4c-3.5,3.5-10.5,9.4-22.1,9.4
			c-14.9,0-25.9-6.7-25.9-21.9c0-15.4,12.4-29.2,33.5-29.2c10.8,0,15.7,4.8,15.7,11.6c0,9-10.6,17.8-26.5,19.1
			c0,5.6,5.1,9.8,11.1,9.8C731.7,97.1,735.7,94.7,738.2,93z M730.2,67.1c0-2.4-1.3-3.7-3.8-3.7c-4.8,0-11.1,7.8-11.1,17.2
			C724.2,78.8,730.2,70.9,730.2,67.1z"/>
	</g>
</g>
</svg>
